<?xml version="1.0" encoding="UTF-8" standalone="no"?>
<!-- Created with Inkscape (http://www.inkscape.org/) -->

<svg
   xmlns:dc="http://purl.org/dc/elements/1.1/"
   xmlns:cc="http://creativecommons.org/ns#"
   xmlns:rdf="http://www.w3.org/1999/02/22-rdf-syntax-ns#"
   xmlns:svg="http://www.w3.org/2000/svg"
   xmlns="http://www.w3.org/2000/svg"
   xmlns:sodipodi="http://sodipodi.sourceforge.net/DTD/sodipodi-0.dtd"
   xmlns:inkscape="http://www.inkscape.org/namespaces/inkscape"
   width="744.09448819"
   height="1052.3622047"
   id="svg9192"
   version="1.1"
   inkscape:version="0.48.5 r10040"
   sodipodi:docname="saab convertible.svg">
  <defs
     id="defs9194" />
  <sodipodi:namedview
     id="base"
     pagecolor="#ffffff"
     bordercolor="#666666"
     borderopacity="1.0"
     inkscape:pageopacity="0.0"
     inkscape:pageshadow="2"
     inkscape:zoom="2.8"
     inkscape:cx="470.35072"
     inkscape:cy="618.14717"
     inkscape:document-units="px"
     inkscape:current-layer="g9211"
     showgrid="false"
     inkscape:window-width="463"
     inkscape:window-height="423"
     inkscape:window-x="578"
     inkscape:window-y="98"
     inkscape:window-maximized="0" />
  <metadata
     id="metadata9197">
    <rdf:RDF>
      <cc:Work
         rdf:about="">
        <dc:format>image/svg+xml</dc:format>
        <dc:type
           rdf:resource="http://purl.org/dc/dcmitype/StillImage" />
      </cc:Work>
    </rdf:RDF>
  </metadata>
  <g
     inkscape:label="Layer 1"
     inkscape:groupmode="layer"
     id="layer1">
    <g
       id="g9211"
       transform="translate(347.70996,-38.227785)">
      <path
         style="fill:#000000"
         d="m 1201.8814,645.70692 c -85.2306,-60.82133 -192.0641,-70.26059 -291.69363,-72.9816 -62.85516,-1.6586 -55.40036,-1.5182 -214.49996,-4.0373 -176.58832,-4.06438 -359.90755,-5.93828 -525.5,-9.8517 -21.60562,-0.569 -102.758616,-2.4253 -136.499996,-3.1223 -23.34741,-0.4823 -33.42195011,-0.7406 -78.5,-2.0125 -28.709643,-0.81 -47.448143,-1.648 -48.274583,-2.1588 -0.42742,-0.2641 -17.528001,-0.6744 -38.001281,-0.9117 -32.90274,-0.3813 -73.73863,-1.313 -128.22414,-2.9257 -9.35,-0.2767 -44,-1.1849 -77,-2.0182 -33,-0.8333 -71.7,-2.2058 -86,-3.05 -14.3,-0.8442 -33.7577,-1.7444 -43.23933,-2.0005 -9.48163,-0.2561 -18.39686,-0.9057 -19.81163,-1.4436 -1.41477,-0.5378 -7.15707,-1.2409 -12.76067,-1.5623 -5.6036,-0.3214 -11.98837,-0.986 -14.18837,-1.4769 -2.2,-0.4908 -5.9125,-0.9035 -8.25,-0.9169 -2.3375,-0.013 -4.25,-0.3972 -4.25,-0.8527 0,-0.9416 -7.68962,-2.9102 -16.3535,-4.18674 -3.21942,-0.4743 -6.59442,-1.5126 -7.5,-2.3071 -0.90557,-0.7946 -4.3465,-2.2109 -7.6465,-3.1473 -3.3,-0.9365 -6.9,-2.5028 -8,-3.4809 -5.85234,-5.2035 -43.71052,-21.96037 -55.42925,-24.53423 -1.68891,-0.37095 -3.07075,-1.09727 -3.07075,-1.61405 0,-0.51678 1.0878,-0.27757 2.51178,-0.30918 12.1947,-1.41821 25.2498,-5.48797 37.5947,-5.50097 18.16504,-0.87099 30.19464,-3.00082 39.85024,-9.85382 5.45876,-3.87643 8.83278,-8.19731 8.97019,-11.48752 0.11394,-2.7281 1.27063,-2.13927 6.61068,3.36525 8.98445,9.26118 12.22482,9.91878 36.74085,7.45626 7.82186,-0.78568 22.32156,-2.15515 32.22156,-3.04329 9.9,-0.88813 26.775,-2.49633 37.5,-3.57378 31.08093,-3.12242 38.98849,-3.87553 47.5,-4.52386 20.53514,-1.5642 37.05348,-3.26969 42.5,-4.38806 2.475,-0.50821 8.1,-1.42591 12.5,-2.03934 7.34124,-1.02348 22.35803,-3.87086 40,-7.58451 18.61063,-3.91756 44.64872,-5.41892 59.8777,-3.45255 10.49902,1.35563 21.55365,6.55748 24.48162,11.52002 1.14028,1.93262 2.44982,3.51386 2.9101,3.51386 0.46027,0 2.77039,2.74174 5.13359,6.09275 2.64148,3.74562 5.54195,6.61304 7.52909,7.44333 1.7778,0.74281 9.49536,1.83366 17.15013,2.42411 7.65477,0.59046 15.94277,1.27413 18.41777,1.51927 2.475,0.24515 14.4,1.12491 26.5,1.95504 12.1,0.83012 25.375001,1.7684 29.500001,2.08506 20.882361,1.60308 50.918013,3.35097 84.9684329,4.94465 17.3076401,0.81006 32.7185801,1.74741 34.2465401,2.083 1.52796,0.3356 4.31867,0.10175 6.20157,-0.51967 3.91508,-1.29209 5.58346,-4.74462 5.58346,-11.55432 0,-5.09714 1.1358,-6.17145 7.8761,-7.44972 10.86949,-2.06136 11.31438,-2.95152 9.97951,-19.96789 l -1.04091,-13.26921 3.08609,-3.18404 c 3.37403,-3.48112 9.58073,-5.60465 16.36356,-5.59855 8.20131,0.007 18.355138,0.93936 26.030856,5.363 8.03193,4.62893 14.27159,12.51112 18.5117,20.75492 2.21323,4.30306 3.33639,9.32435 3.19309,14.1611 -0.11568,3.90464 -0.0494,8.58073 -3.25,11.25939 -3.97102,3.32344 -4.98193,5.71756 -3.76536,8.91738 1.25854,3.31021 5.68823,4.25852 20.97241,4.4898 6.85138,0.10367 12.76408,0.37825 13.13935,0.61018 0.37526,0.23192 14.79459,0.66229 32.04295,0.95637 17.24836,0.29409 32.93565,0.79898 34.86065,1.122 1.925,0.32301 11.6,0.68239 21.5,0.79862 27.88413,0.32737 117.2455,2.46096 155,3.70078 32.65445,-1.10319 71.16173,2.90905 92.3287,2.90745 32.503,-0.0165 41.0832,-0.75011 44.4542,-3.80078 2.5029,-2.26515 4.7171,-6.59959 4.7171,-9.2342 0,-2.5014 -3.6794,-10.00982 -4.9052,-10.00982 -63.34998,-51.71637 -133.28884,-94.74305 -193.37782,-123.4753 -3.81172,-1.79745 -10.71698,-8.90465 -10.71698,-11.03038 0,-3.35619 7.26834,-6.85259 27.5,-13.22874 154.44467,27.511 298.37111,153.49962 454.5,169.67932 72.33297,4.47636 140.75428,9.85148 198.99999,20.73737 65.5626,14.10942 174.078,36.07451 193.2835,107.81774 3.5443,15.6231 3.0611,17.103 -3.5899,10.9945 z"
         id="path9213"
         inkscape:connector-curvature="0"
         sodipodi:nodetypes="ccccsscssssscsccsccccsscccsssssssssssssssssssssssscscaaassssssscccsccsccccc" />
    </g>
  </g>
</svg>
